<?xml version="1.0" standalone="no"?>
<!DOCTYPE svg PUBLIC "-//W3C//DTD SVG 20010904//EN"
 "http://www.w3.org/TR/2001/REC-SVG-20010904/DTD/svg10.dtd">
<svg version="1.0" xmlns="http://www.w3.org/2000/svg"
 width="251.8pt" height="256pt" viewBox="0 0 1259.000000 1280.000000"
 preserveAspectRatio="xMidYMid meet">
<metadata>
Created by potrace 1.15, written by Peter Selinger 2001-2017
</metadata>
<g transform="translate(0.000000,1280.000000) scale(0.100000,-0.100000)"
fill="yellow" stroke="none">
<path d="M7745 12584 c-266 -41 -623 -127 -863 -208 -432 -146 -923 -389
-1326 -658 -709 -473 -1121 -1319 -1165 -2389 -9 -222 -2 -366 24 -505 69
-375 209 -715 430 -1049 107 -161 171 -242 351 -445 258 -291 334 -390 356
-461 14 -47 2 -78 -69 -177 -57 -80 -107 -116 -203 -146 -132 -42 -276 -58
-800 -86 -414 -23 -582 -46 -1015 -140 -518 -113 -560 -121 -640 -127 -94 -7
-160 9 -266 62 -187 95 -437 346 -632 635 -289 428 -620 723 -856 761 -153 24
-270 -52 -414 -268 -247 -370 -474 -1094 -607 -1931 -42 -264 -54 -412 -46
-597 13 -339 89 -674 241 -1064 75 -193 246 -587 309 -711 139 -277 304 -497
595 -794 201 -204 357 -343 642 -572 229 -183 256 -209 294 -284 41 -81 108
-136 251 -208 260 -131 705 -266 1164 -352 962 -181 2390 -376 3330 -455 684
-58 1463 -61 2215 -10 733 51 1351 140 1660 242 153 50 420 198 617 343 126
93 334 292 443 425 107 130 335 444 447 615 223 339 327 655 369 1125 20 219
-1 555 -47 785 -104 513 -327 978 -655 1365 -196 232 -1316 1288 -1751 1652
-136 114 -179 190 -199 358 -9 72 -9 115 -1 177 31 218 157 335 487 456 61 22
205 79 320 125 387 157 745 287 914 331 280 74 379 121 432 205 53 83 35 158
-59 241 -68 61 -146 99 -382 190 -205 79 -342 140 -338 150 2 4 50 45 107 91
143 114 328 294 352 341 11 22 35 56 53 76 163 184 286 435 321 660 17 104
-45 261 -124 317 -86 60 -207 37 -633 -121 -376 -140 -456 -163 -651 -189
-252 -32 -531 -6 -667 63 -82 41 -139 125 -281 410 -136 273 -200 384 -302
522 -94 128 -282 313 -447 440 -190 145 -213 169 -276 289 -140 264 -276 402
-461 466 -37 13 -97 29 -133 34 -89 15 -306 12 -415 -5z"/>
</g>
</svg>
