<?xml version="1.0" standalone="no"?>
<!DOCTYPE svg PUBLIC "-//W3C//DTD SVG 20010904//EN"
 "http://www.w3.org/TR/2001/REC-SVG-20010904/DTD/svg10.dtd">
<svg version="1.0" xmlns="http://www.w3.org/2000/svg"
 width="1280.000000pt" height="640.000000pt" viewBox="0 0 1280.000000 640.000000"
 preserveAspectRatio="xMidYMid meet">
<metadata>
Created by potrace 1.16, written by Peter Selinger 2001-2019
</metadata>
<g transform="translate(0.000000,640.000000) scale(0.100000,-0.100000)"
fill="#000000" stroke="none">
<path d="M60 5500 c-19 -19 -20 -33 -20 -230 0 -211 0 -211 25 -235 l24 -25
273 0 c231 0 277 2 296 16 22 15 22 19 22 238 0 203 -2 224 -18 239 -16 15
-52 17 -300 17 -269 0 -283 -1 -302 -20z"/>
<path d="M817 5502 c-15 -16 -17 -48 -17 -235 0 -204 1 -218 20 -237 19 -19
33 -20 294 -20 261 0 274 1 300 21 l26 20 0 215 c0 201 -1 215 -20 234 -19 19
-33 20 -303 20 -262 0 -285 -1 -300 -18z"/>
<path d="M1570 5500 c-19 -19 -20 -33 -20 -234 l0 -215 26 -20 c26 -20 39 -21
298 -21 230 0 275 2 294 16 22 15 22 19 22 238 0 203 -2 224 -18 239 -16 15
-52 17 -300 17 -269 0 -283 -1 -302 -20z"/>
<path d="M2327 5502 c-15 -16 -17 -48 -17 -240 0 -217 0 -221 22 -236 19 -14
64 -16 294 -16 259 0 272 1 298 21 l26 20 0 215 c0 201 -1 215 -20 234 -19 19
-33 20 -303 20 -262 0 -285 -1 -300 -18z"/>
<path d="M3080 5500 c-19 -19 -20 -33 -20 -234 l0 -215 26 -20 c26 -20 39 -21
300 -21 261 0 275 1 294 20 19 19 20 33 20 238 0 199 -2 220 -18 235 -16 15
-52 17 -300 17 -269 0 -283 -1 -302 -20z"/>
<path d="M3837 5502 c-15 -16 -17 -48 -17 -240 0 -217 0 -221 22 -236 19 -14
65 -16 296 -16 l273 0 24 25 c25 24 25 24 25 235 0 197 -1 211 -20 230 -19 19
-33 20 -303 20 -262 0 -285 -1 -300 -18z"/>
<path d="M4590 5500 c-19 -19 -20 -33 -20 -234 l0 -215 27 -21 c26 -20 35 -21
306 -18 262 3 279 4 293 22 11 16 14 65 14 236 0 197 -2 218 -18 233 -16 15
-52 17 -300 17 -269 0 -283 -1 -302 -20z"/>
<path d="M5346 5504 c-14 -13 -16 -49 -16 -239 0 -220 0 -224 22 -239 19 -14
65 -16 296 -16 l273 0 24 25 c25 24 25 25 25 225 0 196 -5 233 -34 252 -6 4
-138 8 -293 8 -243 0 -284 -2 -297 -16z"/>
<path d="M6102 5504 c-22 -15 -22 -19 -22 -232 0 -119 4 -222 8 -228 20 -30
55 -34 312 -34 257 0 292 4 312 34 4 6 8 109 8 228 0 213 0 217 -22 232 -19
14 -65 16 -298 16 -233 0 -279 -2 -298 -16z"/>
<path d="M6864 5512 c-29 -19 -34 -56 -34 -252 0 -200 0 -201 25 -225 l24 -25
273 0 c231 0 277 2 296 16 22 15 22 19 22 239 0 190 -2 226 -16 239 -13 14
-54 16 -297 16 -155 0 -287 -4 -293 -8z"/>
<path d="M7607 5502 c-15 -16 -17 -48 -17 -233 0 -170 3 -219 14 -235 14 -18
31 -19 293 -22 271 -3 280 -2 306 18 l27 21 0 215 c0 201 -1 215 -20 234 -19
19 -33 20 -303 20 -262 0 -285 -1 -300 -18z"/>
<path d="M8360 5500 c-19 -19 -20 -33 -20 -230 0 -211 0 -211 25 -235 l24 -25
273 0 c231 0 277 2 296 16 22 15 22 19 22 238 0 203 -2 224 -18 239 -16 15
-52 17 -300 17 -269 0 -283 -1 -302 -20z"/>
<path d="M9117 5502 c-15 -16 -17 -48 -17 -235 0 -204 1 -218 20 -237 19 -19
33 -20 294 -20 261 0 274 1 300 21 l26 20 0 215 c0 201 -1 215 -20 234 -19 19
-33 20 -303 20 -262 0 -285 -1 -300 -18z"/>
<path d="M9870 5500 c-19 -19 -20 -33 -20 -234 l0 -215 26 -20 c26 -20 39 -21
298 -21 230 0 275 2 294 16 22 15 22 19 22 238 0 203 -2 224 -18 239 -16 15
-52 17 -300 17 -269 0 -283 -1 -302 -20z"/>
<path d="M10627 5502 c-15 -16 -17 -48 -17 -240 0 -217 0 -221 22 -236 19 -14
64 -16 294 -16 259 0 272 1 298 21 l26 20 0 215 c0 201 -1 215 -20 234 -19 19
-33 20 -303 20 -262 0 -285 -1 -300 -18z"/>
<path d="M11380 5500 c-19 -19 -20 -33 -20 -234 l0 -215 26 -20 c26 -20 39
-21 300 -21 261 0 275 1 294 20 19 19 20 33 20 238 0 199 -2 220 -18 235 -16
15 -52 17 -300 17 -269 0 -283 -1 -302 -20z"/>
<path d="M12137 5502 c-15 -16 -17 -48 -17 -240 0 -217 0 -221 22 -236 19 -14
65 -16 296 -16 l273 0 25 25 25 25 -3 216 c-3 200 -4 217 -22 230 -16 11 -74
14 -301 14 -260 0 -283 -1 -298 -18z"/>
<path d="M83 4860 c-12 -5 -26 -18 -32 -29 -7 -13 -11 -123 -11 -309 0 -270 1
-291 19 -313 l19 -24 307 0 307 0 19 24 c18 22 19 43 19 316 0 273 -1 294 -19
316 l-19 24 -294 2 c-161 1 -303 -2 -315 -7z"/>
<path d="M880 4857 l-25 -13 -3 -317 -2 -318 36 -15 c30 -13 84 -15 321 -12
l285 3 19 24 c18 22 19 43 19 321 0 289 -1 297 -21 316 -20 18 -42 19 -313 22
-222 2 -297 -1 -316 -11z"/>
<path d="M1680 4857 l-25 -13 -3 -299 c-1 -165 0 -310 3 -322 9 -39 58 -45
356 -41 256 3 279 4 298 22 20 19 21 27 21 321 0 294 -1 302 -21 321 -20 18
-42 19 -313 22 -222 2 -297 -1 -316 -11z"/>
<path d="M2485 4858 c-11 -6 -23 -16 -27 -22 -4 -6 -8 -147 -8 -313 0 -332 -1
-326 63 -338 18 -4 154 -5 303 -3 251 3 274 4 293 22 20 19 21 27 21 322 l0
303 -26 20 c-26 20 -38 21 -313 21 -194 -1 -292 -4 -306 -12z"/>
<path d="M3285 4858 c-11 -6 -23 -16 -27 -22 -4 -6 -8 -146 -8 -312 0 -293 1
-301 21 -320 20 -18 40 -19 319 -19 279 0 299 1 319 19 20 19 21 27 21 320 0
166 -4 306 -8 312 -20 31 -55 34 -334 34 -192 -1 -289 -4 -303 -12z"/>
<path d="M4076 4849 l-26 -20 0 -303 c0 -295 1 -303 21 -322 19 -18 42 -19
293 -22 149 -2 285 -1 303 3 64 12 63 6 63 338 0 166 -4 307 -8 313 -20 30
-55 34 -335 34 -272 0 -285 -1 -311 -21z"/>
<path d="M4900 4863 c-8 -3 -23 -12 -32 -21 -16 -14 -18 -42 -18 -317 0 -294
1 -302 21 -321 19 -18 42 -19 293 -22 149 -2 285 -1 303 3 64 12 63 5 63 344
0 275 -2 310 -17 322 -13 11 -77 14 -307 16 -160 1 -298 -1 -306 -4z"/>
<path d="M5700 4863 c-8 -3 -23 -12 -32 -21 -16 -14 -18 -42 -18 -317 0 -294
1 -302 21 -321 19 -18 42 -19 304 -22 234 -3 289 -1 319 12 l36 15 0 314 c0
280 -2 316 -17 328 -13 11 -77 14 -307 16 -160 1 -298 -1 -306 -4z"/>
<path d="M6493 4860 c-12 -5 -26 -18 -32 -29 -7 -13 -11 -123 -11 -309 0 -270
1 -291 19 -313 l19 -24 307 0 307 0 19 24 c18 22 19 43 19 316 0 273 -1 294
-19 316 l-19 24 -294 2 c-161 1 -303 -2 -315 -7z"/>
<path d="M7293 4860 c-12 -5 -26 -18 -32 -29 -14 -25 -15 -569 -1 -605 16 -43
58 -48 363 -44 l279 3 19 24 c18 22 19 43 19 316 0 273 -1 294 -19 316 l-19
24 -294 2 c-161 1 -303 -2 -315 -7z"/>
<path d="M8090 4857 l-25 -13 -3 -317 -2 -318 36 -15 c30 -13 84 -15 319 -12
262 3 285 4 304 22 20 19 21 27 21 321 0 294 -1 302 -21 321 -20 18 -42 19
-313 22 -222 2 -297 -1 -316 -11z"/>
<path d="M8890 4857 l-25 -13 -3 -299 c-1 -165 0 -310 3 -322 9 -39 58 -45
356 -41 256 3 279 4 298 22 20 19 21 27 21 322 l0 303 -26 20 c-26 20 -38 21
-313 21 -210 0 -293 -4 -311 -13z"/>
<path d="M9695 4858 c-11 -6 -23 -16 -27 -22 -4 -6 -8 -147 -8 -313 0 -332 -1
-326 63 -338 18 -4 154 -5 303 -3 251 3 274 4 293 22 20 19 21 27 21 320 0
166 -4 306 -8 312 -20 31 -55 34 -334 34 -192 -1 -289 -4 -303 -12z"/>
<path d="M10495 4858 c-11 -6 -23 -16 -27 -22 -4 -6 -8 -146 -8 -312 0 -293 1
-301 21 -320 20 -18 49 -19 710 -22 590 -2 693 0 724 12 l35 15 -2 318 -3 317
-25 13 c-34 17 -1395 18 -1425 1z m185 -208 c0 -19 7 -20 210 -20 180 0 210
-2 210 -15 0 -13 -30 -15 -210 -15 l-210 0 0 -25 c0 -14 -2 -25 -5 -25 -8 0
-106 62 -103 65 8 8 94 55 101 55 4 0 7 -9 7 -20z"/>
<path d="M12113 4860 c-12 -5 -26 -18 -32 -29 -7 -13 -11 -123 -11 -309 0
-270 1 -291 19 -313 l19 -24 307 0 307 0 19 24 c18 22 19 43 19 316 0 273 -1
294 -19 316 l-19 24 -294 2 c-161 1 -303 -2 -315 -7z"/>
<path d="M61 4014 c-20 -26 -21 -39 -21 -311 0 -280 4 -315 34 -335 6 -4 209
-8 452 -8 415 0 442 1 457 18 15 16 17 54 17 325 0 305 0 306 -22 321 -20 14
-80 16 -459 16 l-438 0 -20 -26z"/>
<path d="M1122 4024 c-22 -15 -22 -16 -22 -323 0 -286 1 -309 18 -324 16 -15
53 -17 318 -17 255 0 303 2 322 16 22 15 22 16 22 320 0 291 -1 305 -20 324
-19 19 -33 20 -318 20 -253 0 -301 -2 -320 -16z m235 -120 c47 -30 50 -132 6
-180 -23 -25 -23 -27 -7 -45 16 -18 16 -19 -3 -19 -11 0 -26 6 -32 13 -6 8
-28 19 -49 25 -53 16 -74 43 -79 99 -5 60 12 93 57 116 37 18 69 16 107 -9z"/>
<path d="M1258 3889 c-41 -24 -40 -137 2 -159 54 -29 100 8 100 80 0 72 -49
110 -102 79z"/>
<path d="M1922 4024 c-22 -15 -22 -16 -22 -324 0 -308 0 -309 22 -324 19 -14
67 -16 324 -16 279 0 302 1 317 18 15 16 17 54 17 325 0 305 0 306 -22 321
-19 14 -67 16 -318 16 -251 0 -299 -2 -318 -16z m118 -184 c12 -49 23 -90 25
-90 2 0 13 41 25 90 29 119 46 119 77 1 12 -46 24 -85 26 -87 2 -2 12 35 23
82 16 74 34 108 49 92 2 -2 -9 -53 -24 -113 -23 -92 -31 -110 -48 -113 -17 -3
-22 7 -38 80 -9 46 -20 88 -23 93 -4 6 -16 -30 -28 -80 -17 -74 -25 -91 -41
-93 -18 -3 -23 9 -47 102 -30 122 -31 126 -12 126 9 0 21 -31 36 -90z"/>
<path d="M2720 4020 c-19 -19 -20 -33 -20 -320 0 -287 1 -301 20 -320 19 -19
33 -20 323 -20 282 0 305 1 320 18 15 16 17 54 17 325 0 305 0 306 -22 321
-19 14 -67 16 -320 16 -285 0 -299 -1 -318 -20z m230 -105 c0 -12 -13 -15 -55
-15 l-55 0 0 -36 0 -35 52 2 c33 2 53 -1 56 -9 2 -8 -13 -12 -52 -12 l-56 0 0
-40 0 -40 55 0 c42 0 55 -3 55 -15 0 -12 -14 -15 -70 -15 l-70 0 0 115 0 115
70 0 c56 0 70 -3 70 -15z"/>
<path d="M3520 4020 c-19 -19 -20 -33 -20 -320 0 -287 1 -301 20 -320 19 -19
33 -20 323 -20 282 0 305 1 320 18 15 16 17 54 17 325 0 305 0 306 -22 321
-19 14 -67 16 -320 16 -285 0 -299 -1 -318 -20z m236 -111 c19 -15 18 -73 -1
-89 -13 -11 -14 -15 -1 -29 14 -16 46 -76 46 -86 0 -3 -7 -5 -15 -5 -8 0 -24
18 -35 40 -20 40 -45 60 -74 60 -12 0 -16 -11 -16 -50 0 -38 -4 -50 -15 -50
-12 0 -15 20 -15 116 l0 117 56 -6 c30 -3 62 -11 70 -18z"/>
<path d="M4322 4017 c-22 -23 -22 -29 -22 -320 0 -284 1 -298 20 -317 19 -19
33 -20 323 -20 166 0 307 4 313 8 30 20 34 55 34 337 l0 286 -25 24 -24 25
-299 0 -299 0 -21 -23z"/>
<path d="M5121 4014 c-20 -26 -21 -39 -21 -311 0 -280 4 -315 34 -335 6 -4
147 -8 314 -8 289 0 303 1 322 20 19 19 20 33 20 318 l0 299 -23 21 c-23 22
-29 22 -324 22 l-302 0 -20 -26z"/>
<path d="M5932 4024 c-22 -15 -22 -16 -22 -323 0 -286 1 -309 18 -324 16 -15
54 -17 320 -17 289 0 303 1 322 20 19 19 20 33 20 318 0 286 -1 299 -20 320
-20 22 -25 22 -318 22 -253 0 -301 -2 -320 -16z m118 -182 c0 -95 7 -112 50
-112 43 0 50 17 50 112 0 83 1 88 21 88 21 0 22 -3 17 -91 -7 -109 -23 -134
-88 -134 -66 0 -83 26 -88 135 -4 86 -4 90 17 90 20 0 21 -5 21 -88z"/>
<path d="M6732 4024 c-22 -15 -22 -16 -22 -323 0 -286 1 -309 18 -324 16 -15
54 -17 320 -17 289 0 303 1 322 20 19 19 20 33 20 320 0 287 -1 301 -20 320
-19 19 -33 20 -318 20 -253 0 -301 -2 -320 -16z"/>
<path d="M7532 4024 c-22 -15 -22 -16 -22 -323 0 -286 1 -309 18 -324 16 -15
53 -17 318 -17 255 0 303 2 322 16 22 15 22 16 22 320 0 291 -1 305 -20 324
-19 19 -33 20 -318 20 -253 0 -301 -2 -320 -16z m235 -114 c55 -51 50 -154
-10 -191 -41 -25 -91 -19 -126 16 -22 22 -26 34 -26 86 0 54 3 63 28 85 36 31
103 33 134 4z"/>
<path d="M7673 3900 c-13 -6 -26 -24 -34 -48 -10 -35 -9 -45 7 -79 15 -31 25
-39 51 -41 46 -5 73 26 73 83 0 35 -6 52 -25 70 -26 27 -37 29 -72 15z"/>
<path d="M8332 4024 c-22 -15 -22 -16 -22 -324 0 -308 0 -309 22 -324 19 -14
67 -16 324 -16 279 0 302 1 317 18 15 16 17 54 17 325 0 305 0 306 -22 321
-19 14 -67 16 -318 16 -251 0 -299 -2 -318 -16z m222 -110 c9 -8 16 -31 16
-49 0 -41 -29 -65 -77 -65 -32 0 -33 -1 -33 -45 0 -33 -4 -45 -15 -45 -12 0
-15 19 -15 110 l0 110 54 0 c36 0 60 -5 70 -16z"/>
<path d="M9130 4020 c-19 -19 -20 -33 -20 -324 0 -304 0 -305 22 -320 19 -14
67 -16 324 -16 279 0 302 1 317 18 15 16 17 54 17 325 0 305 0 306 -22 321
-19 14 -67 16 -320 16 -285 0 -299 -1 -318 -20z"/>
<path d="M9930 4020 c-19 -19 -20 -33 -20 -320 0 -287 1 -301 20 -320 19 -19
33 -20 323 -20 282 0 305 1 320 18 15 16 17 54 17 325 0 305 0 306 -22 321
-19 14 -67 16 -320 16 -285 0 -299 -1 -318 -20z"/>
<path d="M10793 4016 l-28 -24 0 -292 0 -292 24 -19 c21 -17 40 -19 176 -19
120 0 155 -3 164 -14 10 -11 11 -109 5 -409 l-7 -395 26 -26 26 -26 363 0
c313 0 367 2 386 16 l22 15 0 734 0 734 -26 20 c-26 21 -36 21 -565 21 l-538
0 -28 -24z m489 -201 l3 -85 -137 0 -138 0 0 -25 0 -25 -50 28 c-27 15 -50 30
-50 34 0 5 87 58 96 58 2 0 4 -9 4 -20 0 -19 7 -20 120 -20 l120 0 0 70 c0 54
3 70 14 70 11 0 15 -20 18 -85z"/>
<path d="M12092 4017 c-22 -23 -22 -29 -22 -318 0 -283 1 -296 20 -317 21 -22
25 -22 323 -22 166 0 307 4 313 8 30 20 34 55 34 335 0 272 -1 285 -21 311
l-20 26 -303 0 -303 0 -21 -23z"/>
<path d="M60 3190 c-19 -19 -20 -33 -20 -315 l0 -296 25 -24 24 -25 584 0 584
0 21 23 c22 23 22 29 22 320 0 284 -1 298 -20 317 -20 20 -33 20 -610 20 -577
0 -590 0 -610 -20z"/>
<path d="M1497 3192 c-15 -16 -17 -54 -17 -325 0 -305 0 -306 22 -321 19 -14
67 -16 318 -16 284 0 297 1 318 20 22 20 22 25 22 324 0 281 -1 304 -18 319
-16 15 -54 17 -324 17 -283 0 -306 -1 -321 -18z m252 -217 c23 -58 41 -110 41
-115 0 -23 -29 -7 -39 20 -9 28 -13 30 -60 30 -46 0 -50 -2 -60 -30 -5 -17
-17 -30 -27 -30 -11 0 -14 5 -9 18 4 9 22 57 41 106 19 48 37 92 40 97 16 27
36 0 73 -96z"/>
<path d="M2297 3192 c-15 -16 -17 -54 -17 -325 0 -305 0 -306 22 -321 19 -14
67 -16 320 -16 285 0 299 1 318 20 19 19 20 33 20 323 0 282 -1 305 -18 320
-16 15 -54 17 -324 17 -283 0 -306 -1 -321 -18z"/>
<path d="M3097 3192 c-15 -16 -17 -54 -17 -320 0 -289 1 -303 20 -322 19 -19
33 -20 318 -20 253 0 301 2 320 16 22 15 22 16 22 323 0 286 -1 309 -18 324
-16 15 -54 17 -324 17 -283 0 -306 -1 -321 -18z m267 -141 c49 -46 41 -147
-14 -176 -16 -8 -54 -15 -85 -15 l-55 0 0 111 0 111 65 -4 c50 -3 70 -9 89
-27z"/>
<path d="M3240 2964 l0 -87 42 7 c60 10 78 29 78 86 0 59 -21 80 -78 80 l-42
0 0 -86z"/>
<path d="M3897 3192 c-15 -16 -17 -54 -17 -320 0 -289 1 -303 20 -322 19 -19
33 -20 318 -20 253 0 301 2 320 16 22 15 22 16 22 323 0 286 -1 309 -18 324
-16 15 -54 17 -324 17 -283 0 -306 -1 -321 -18z"/>
<path d="M4700 3190 c-19 -19 -20 -33 -20 -318 l0 -299 23 -21 c23 -22 29 -22
318 -22 250 0 298 2 317 16 22 15 22 16 22 324 0 267 -2 311 -16 324 -13 14
-56 16 -320 16 -291 0 -305 -1 -324 -20z m241 -120 c10 -6 19 -17 19 -25 0
-12 -5 -12 -34 2 -71 34 -132 -12 -122 -92 6 -51 36 -77 85 -73 33 3 36 6 39
36 3 29 1 32 -22 32 -41 0 -30 18 14 22 l40 4 0 -53 0 -52 -41 -11 c-87 -24
-149 23 -149 112 0 41 5 54 29 79 24 24 38 29 76 29 25 0 55 -5 66 -10z"/>
<path d="M5500 3190 c-19 -19 -20 -33 -20 -319 l0 -300 26 -20 c26 -20 38 -21
321 -21 l294 0 24 25 25 24 0 286 c0 282 -4 317 -34 337 -6 4 -147 8 -313 8
-290 0 -304 -1 -323 -20z m140 -155 l0 -45 50 0 50 0 0 45 c0 38 3 45 20 45
19 0 20 -7 20 -110 0 -105 -1 -110 -21 -110 -19 0 -21 5 -17 50 l3 50 -52 0
-53 0 0 -50 c0 -38 -4 -50 -15 -50 -12 0 -15 19 -15 110 0 91 3 110 15 110 11
0 15 -12 15 -45z"/>
<path d="M6304 3196 c-18 -14 -19 -31 -22 -315 l-3 -301 25 -25 25 -25 296 0
296 0 24 25 25 24 0 296 c0 282 -1 296 -20 315 -19 19 -33 20 -323 20 -246 0
-307 -3 -323 -14z"/>
<path d="M7106 3194 c-14 -13 -16 -57 -16 -324 0 -308 0 -309 22 -324 19 -14
66 -16 314 -16 280 0 292 1 318 21 l26 20 0 300 c0 286 -1 300 -20 319 -19 19
-33 20 -324 20 -264 0 -307 -2 -320 -16z m185 -132 c-1 -23 1 -42 5 -42 4 0
29 20 55 45 72 67 97 59 29 -10 l-54 -55 59 -60 c47 -47 55 -60 39 -60 -11 0
-42 23 -69 50 -27 28 -53 50 -57 50 -4 0 -8 -22 -8 -50 0 -38 -4 -50 -15 -50
-12 0 -15 19 -15 108 0 60 3 112 7 116 16 16 27 -3 24 -42z"/>
<path d="M7907 3192 c-15 -16 -17 -54 -17 -325 0 -305 0 -306 22 -321 19 -14
67 -16 318 -16 284 0 297 1 318 20 22 21 22 25 22 325 0 303 0 304 -22 319
-19 14 -67 16 -324 16 -279 0 -302 -1 -317 -18z"/>
<path d="M8707 3192 c-15 -16 -17 -54 -17 -325 0 -305 0 -306 22 -321 19 -14
67 -16 320 -16 285 0 299 1 318 20 19 19 20 33 20 323 0 282 -1 305 -18 320
-16 15 -54 17 -324 17 -283 0 -306 -1 -321 -18z"/>
<path d="M9507 3192 c-15 -16 -17 -54 -17 -320 0 -289 1 -303 20 -322 19 -19
33 -20 320 -20 287 0 301 1 320 20 19 19 20 33 20 323 0 282 -1 305 -18 320
-16 15 -54 17 -324 17 -283 0 -306 -1 -321 -18z"/>
<path d="M10307 3192 c-15 -16 -17 -54 -17 -320 0 -289 1 -303 20 -322 19 -19
33 -20 318 -20 253 0 301 2 320 16 22 15 22 16 22 323 0 286 -1 309 -18 324
-16 15 -54 17 -324 17 -283 0 -306 -1 -321 -18z"/>
<path d="M12090 3190 c-19 -19 -20 -33 -20 -315 l0 -296 25 -24 24 -25 296 0
296 0 24 25 25 24 0 296 c0 282 -1 296 -20 315 -19 19 -33 20 -325 20 -292 0
-306 -1 -325 -20z"/>
<path d="M83 2380 c-12 -5 -26 -18 -32 -29 -7 -13 -11 -123 -11 -309 0 -270 1
-291 19 -313 l19 -24 375 0 c355 0 376 1 396 19 20 19 21 27 21 321 0 294 -1
302 -21 321 -20 18 -43 19 -383 21 -198 1 -371 -2 -383 -7z m292 -202 c44 -61
81 -115 83 -119 2 -4 -12 -4 -30 2 -67 19 -70 17 -67 -63 l2 -73 -71 -3 -72
-3 0 77 0 77 -27 -7 c-16 -3 -39 -9 -52 -12 -20 -6 -10 13 60 114 45 67 86
122 89 122 3 0 41 -51 85 -112z"/>
<path d="M231 2168 c-29 -44 -47 -79 -40 -76 62 23 59 27 59 -61 l0 -81 45 0
45 0 0 79 0 80 30 -9 c17 -5 30 -7 30 -4 0 5 -110 154 -113 154 -1 0 -26 -37
-56 -82z"/>
<path d="M1030 2377 l-25 -13 -3 -317 -2 -318 36 -15 c29 -12 85 -14 319 -12
262 3 284 4 304 22 20 19 21 27 21 321 0 294 -1 302 -21 321 -20 18 -42 19
-313 22 -222 2 -297 -1 -316 -11z"/>
<path d="M1843 2380 c-12 -5 -26 -18 -32 -29 -7 -13 -11 -123 -11 -309 0 -270
1 -291 19 -313 l19 -24 307 0 307 0 19 24 c18 22 19 43 19 316 0 273 -1 294
-19 316 l-19 24 -294 2 c-161 1 -303 -2 -315 -7z m257 -142 c0 -7 -29 -49 -65
-93 -35 -44 -64 -83 -65 -87 0 -5 32 -8 70 -8 40 0 70 -4 70 -10 0 -6 -38 -10
-95 -10 -52 0 -95 4 -95 9 0 5 32 48 70 95 l70 86 -65 0 c-51 0 -65 3 -65 15
0 12 16 15 85 15 61 0 85 -3 85 -12z"/>
<path d="M2660 2383 c-8 -3 -23 -12 -32 -21 -16 -14 -18 -42 -18 -317 0 -294
1 -302 21 -321 20 -18 40 -19 324 -19 241 0 305 3 318 14 15 12 17 48 17 326
0 278 -2 314 -17 326 -13 11 -77 14 -307 16 -160 1 -298 -1 -306 -4z"/>
<path d="M3470 2383 c-8 -3 -23 -12 -32 -21 -16 -14 -18 -42 -18 -317 0 -294
1 -302 21 -321 19 -18 42 -19 293 -22 149 -2 285 0 303 3 64 12 63 6 63 338 0
166 -4 307 -8 314 -18 28 -69 33 -335 32 -150 0 -279 -3 -287 -6z"/>
<path d="M4270 2379 c-13 -6 -28 -15 -32 -22 -4 -7 -8 -148 -8 -314 0 -332 -1
-326 63 -338 18 -3 154 -5 303 -3 251 3 274 4 293 22 20 19 21 27 21 320 0
166 -4 306 -8 313 -4 6 -20 17 -35 22 -36 14 -562 14 -597 0z"/>
<path d="M5080 2379 c-13 -5 -28 -15 -32 -22 -4 -7 -8 -148 -8 -314 0 -332 -1
-326 63 -338 18 -3 154 -5 303 -3 251 3 274 4 293 22 20 19 21 27 21 321 0
294 -1 302 -21 321 -20 18 -42 19 -308 21 -174 1 -296 -2 -311 -8z m197 -155
c14 -22 14 -26 0 -48 -14 -21 -14 -26 -2 -36 8 -7 15 -27 15 -46 0 -45 -29
-64 -97 -64 l-53 0 0 113 0 112 60 -3 c51 -3 63 -8 77 -28z"/>
<path d="M5882 2380 c-39 -16 -43 -48 -40 -351 3 -261 5 -290 21 -306 16 -17
43 -18 323 -18 l306 0 19 24 c18 22 19 43 19 316 0 273 -1 294 -19 316 l-19
24 -294 2 c-163 1 -303 -2 -316 -7z m155 -212 l48 -93 3 93 c2 68 6 92 15 89
8 -2 13 -39 15 -115 3 -111 2 -112 -20 -112 -19 0 -32 17 -70 93 l-48 92 0
-92 c0 -76 -3 -93 -15 -93 -12 0 -15 19 -15 109 0 96 2 110 18 114 9 3 18 5
19 6 2 0 24 -41 50 -91z"/>
<path d="M6693 2380 c-12 -5 -26 -18 -32 -29 -7 -13 -11 -123 -11 -309 0 -270
1 -291 19 -313 l19 -24 306 0 c280 0 307 1 323 18 17 16 18 43 18 322 0 279
-2 306 -18 322 -16 16 -44 18 -310 20 -161 1 -302 -2 -314 -7z m112 -160 c12
-30 25 -64 29 -75 6 -16 13 -5 35 55 22 59 32 76 49 78 22 3 22 1 22 -112 0
-96 -3 -116 -15 -116 -12 0 -15 17 -16 93 l0 92 -24 -64 c-39 -105 -48 -106
-89 -1 l-25 65 0 -92 c-1 -76 -4 -93 -16 -93 -12 0 -15 20 -15 116 0 113 0
115 22 112 16 -2 27 -17 43 -58z"/>
<path d="M7510 2383 c-8 -3 -23 -12 -32 -21 -16 -14 -18 -42 -18 -317 0 -294
1 -302 21 -321 20 -18 42 -19 304 -22 234 -2 290 0 319 12 l36 15 0 316 0 316
-35 15 c-27 11 -90 14 -307 13 -150 0 -280 -3 -288 -6z"/>
<path d="M8320 2383 c-8 -3 -23 -12 -32 -21 -16 -14 -18 -42 -18 -317 0 -294
1 -302 21 -321 19 -18 42 -19 293 -22 149 -2 285 0 303 3 64 12 63 6 63 338 0
166 -4 307 -8 314 -18 28 -69 33 -335 32 -150 0 -279 -3 -287 -6z"/>
<path d="M9120 2379 c-13 -5 -28 -15 -32 -22 -4 -7 -8 -148 -8 -314 0 -332 -1
-326 63 -338 18 -3 154 -5 303 -3 251 3 274 4 293 22 20 19 21 27 21 321 0
294 -1 302 -21 321 -20 18 -42 19 -308 21 -174 1 -296 -2 -311 -8z"/>
<path d="M9920 2377 l-25 -13 -3 -317 -2 -318 35 -15 c30 -12 121 -14 604 -12
543 3 570 4 590 22 20 19 21 27 21 321 0 294 -1 302 -21 321 -20 18 -47 19
-598 21 -452 2 -581 0 -601 -10z m341 -218 c38 -53 69 -99 69 -102 0 -3 -17
-1 -37 4 -21 5 -41 9 -45 9 -5 0 -8 -34 -8 -75 l0 -75 -70 0 -70 0 0 76 c0 62
-3 75 -14 71 -8 -3 -31 -9 -51 -13 l-36 -6 83 121 c75 110 84 120 96 104 7
-10 44 -61 83 -114z"/>
<path d="M10110 2164 l-52 -76 31 7 30 6 3 -78 3 -78 44 0 44 0 -2 79 -2 78
36 -6 35 -7 -51 71 c-29 39 -56 73 -60 76 -4 2 -31 -30 -59 -72z"/>
<path d="M11300 2377 l-25 -13 -3 -317 -2 -318 36 -15 c29 -12 85 -14 319 -12
262 3 284 4 304 22 20 19 21 27 21 321 0 294 -1 302 -21 321 -20 18 -42 19
-313 22 -222 2 -297 -1 -316 -11z"/>
<path d="M12113 2380 c-12 -5 -26 -18 -32 -29 -7 -13 -11 -123 -11 -309 0
-270 1 -291 19 -313 l19 -24 307 0 307 0 19 24 c18 22 19 43 19 316 0 273 -1
294 -19 316 l-19 24 -294 2 c-161 1 -303 -2 -315 -7z"/>
<path d="M65 1535 l-25 -24 0 -296 c0 -282 1 -296 20 -315 20 -20 33 -20 610
-20 577 0 590 0 610 20 19 19 20 33 20 318 l0 299 -23 21 -23 22 -583 0 -582
0 -24 -25z"/>
<path d="M1442 1544 c-22 -15 -22 -16 -22 -323 0 -286 1 -309 18 -324 16 -15
53 -17 318 -17 255 0 303 2 322 16 22 15 22 16 22 320 0 291 -1 305 -20 324
-19 19 -33 20 -318 20 -253 0 -301 -2 -320 -16z"/>
<path d="M2240 1540 c-19 -19 -20 -33 -20 -323 0 -282 1 -305 18 -320 16 -15
54 -17 324 -17 283 0 306 1 321 18 15 16 17 54 17 325 0 305 0 306 -22 321
-19 14 -67 16 -320 16 -285 0 -299 -1 -318 -20z m155 -170 c13 -15 22 -17 36
-9 10 5 30 7 44 3 18 -4 32 -1 46 12 26 24 51 4 28 -23 -19 -23 -19 -114 0
-137 20 -24 -1 -45 -25 -25 -24 20 -115 20 -137 1 -13 -12 -20 -13 -29 -4 -9
9 -7 17 9 34 16 17 19 28 12 40 -5 10 -5 26 0 40 7 18 4 28 -11 45 -11 12 -17
26 -13 32 9 16 20 14 40 -9z"/>
<path d="M3042 1540 c-22 -20 -22 -25 -22 -320 0 -287 1 -301 20 -320 19 -19
33 -20 323 -20 282 0 305 1 320 18 15 16 17 54 17 325 0 305 0 306 -22 321
-19 14 -67 16 -318 16 -284 0 -297 -1 -318 -20z"/>
<path d="M3845 1535 l-25 -24 0 -296 c0 -282 1 -296 20 -315 20 -20 33 -20
1973 -20 1880 0 1955 1 1970 18 15 16 17 54 17 320 0 289 -1 303 -20 322 -20
20 -33 20 -1965 20 l-1946 0 -24 -25z"/>
<path d="M7940 1540 c-19 -19 -20 -33 -20 -324 0 -304 0 -305 22 -320 19 -14
67 -16 324 -16 279 0 302 1 317 18 15 16 17 54 17 325 0 305 0 306 -22 321
-19 14 -67 16 -320 16 -285 0 -299 -1 -318 -20z"/>
<path d="M8742 1537 c-22 -23 -22 -29 -22 -320 0 -284 1 -298 20 -317 19 -19
33 -20 324 -20 264 0 307 2 320 16 14 13 16 57 16 324 0 308 0 309 -22 324
-19 14 -67 16 -318 16 l-297 0 -21 -23z m338 -191 l0 -75 45 -32 c49 -35 53
-44 29 -53 -15 -6 -15 -8 1 -32 13 -20 14 -28 4 -40 -17 -21 -34 -17 -47 11
-16 34 -32 31 -32 -5 l0 -30 -130 0 -130 0 0 165 0 165 130 0 130 0 0 -74z"/>
<path d="M8842 1184 l3 -66 107 -1 108 -2 -5 30 c-2 17 -7 47 -10 68 l-6 37
-100 0 -100 0 3 -66z"/>
<path d="M9544 1535 l-25 -25 3 -301 c3 -284 4 -301 22 -315 16 -11 87 -14
396 -14 352 0 378 1 393 18 15 16 17 54 17 320 0 289 -1 303 -20 322 -19 19
-33 20 -390 20 l-371 0 -25 -25z"/>
<path d="M10490 1540 c-19 -19 -20 -33 -20 -323 0 -282 1 -305 18 -320 16 -15
54 -17 324 -17 283 0 306 1 321 18 15 16 17 54 17 325 0 305 0 306 -22 321
-19 14 -67 16 -320 16 -285 0 -299 -1 -318 -20z"/>
<path d="M11292 1537 c-22 -23 -22 -29 -22 -320 0 -284 1 -298 20 -317 19 -19
33 -20 323 -20 282 0 305 1 320 18 15 16 17 54 17 325 0 305 0 306 -22 321
-19 14 -67 16 -318 16 l-297 0 -21 -23z"/>
<path d="M12095 1535 l-25 -24 0 -296 c0 -282 1 -296 20 -315 19 -19 33 -20
325 -20 292 0 306 1 325 20 19 19 20 33 20 315 l0 296 -25 24 -24 25 -296 0
-296 0 -24 -25z"/>
</g>
</svg>
