<?xml version="1.0" standalone="no"?>
<!DOCTYPE svg PUBLIC "-//W3C//DTD SVG 20010904//EN"
 "http://www.w3.org/TR/2001/REC-SVG-20010904/DTD/svg10.dtd">
<svg version="1.0" xmlns="http://www.w3.org/2000/svg"
 width="1200.000000pt" height="768.000000pt" viewBox="0 0 300.000000 192.000000"
 preserveAspectRatio="xMidYMid meet">
<metadata>
Created by potrace 1.10, written by Peter Selinger 2001-2011
</metadata>
<g transform="translate(0.000000,192.000000) scale(0.100000,-0.100000)"
fill="#f1ecce" stroke="#f1ecce">
<path d="M1795 1735 c-69 -16 -137 -53 -223 -119 l-72 -56 -73 55 c-103 79
-186 118 -262 123 -73 5 -111 -11 -148 -60 -49 -66 -65 -170 -48 -299 7 -46
13 -92 14 -103 1 -14 -10 -23 -50 -37 -203 -70 -339 -210 -303 -312 31 -90
129 -170 280 -229 74 -30 81 -34 75 -56 -3 -12 -10 -57 -15 -98 -25 -198 36
-342 153 -359 78 -12 209 47 330 147 l47 39 63 -49 c119 -94 248 -149 320
-135 88 16 142 93 153 219 6 62 -7 210 -22 248 -3 7 27 24 77 44 160 63 268
157 285 248 18 97 -120 228 -311 294 -38 13 -50 22 -48 36 1 11 7 60 13 110
30 251 -64 391 -235 349z m-565 -27 c44 -13 161 -82 168 -100 2 -4 9 -8 16 -8
7 0 21 -9 32 -21 43 -47 60 -46 124 11 98 87 214 135 306 128 56 -5 76 -20
109 -81 26 -46 35 -161 23 -276 -11 -103 -11 -104 11 -122 13 -11 32 -19 43
-19 10 0 33 -8 51 -17 18 -9 35 -16 39 -15 3 1 12 -5 18 -13 7 -8 18 -15 24
-15 6 0 23 -10 38 -23 14 -12 41 -33 58 -47 50 -40 66 -82 62 -162 -2 -30
-110 -148 -135 -148 -8 0 -20 -6 -26 -14 -7 -8 -47 -27 -89 -42 -111 -39 -107
-33 -92 -158 14 -114 8 -211 -17 -263 -25 -54 -69 -93 -106 -94 -69 -2 -104 3
-143 22 -22 10 -44 19 -48 19 -4 0 -24 12 -44 27 -20 16 -41 31 -47 35 -5 5
-30 24 -53 43 -24 19 -48 35 -53 35 -5 0 -26 -15 -46 -33 -117 -104 -260 -167
-342 -151 -44 9 -86 54 -106 113 -14 44 -16 74 -12 180 4 69 8 137 9 151 3 27
8 24 -155 99 -82 38 -167 104 -167 130 0 6 -4 11 -9 11 -26 0 -32 94 -9 140
15 30 85 98 113 111 11 5 40 22 65 38 25 16 50 30 57 30 6 1 32 10 57 21 43
18 46 21 45 57 0 21 -4 47 -8 58 -5 11 -4 25 1 32 5 7 5 14 -2 18 -21 13 -3
215 20 223 6 2 8 8 5 12 -3 5 11 28 32 51 l37 41 66 -5 c36 -3 72 -7 80 -9z"/>
<path d="M1093 1661 c-43 -40 -56 -81 -60 -181 -2 -57 2 -117 10 -150 l13 -55
59 2 c33 1 90 10 127 19 62 15 70 20 107 67 22 29 54 67 70 86 17 18 31 40 31
47 0 20 -98 99 -172 138 -87 46 -154 56 -185 27z m132 -22 c30 -11 91 -47 135
-80 l80 -59 -54 -64 c-30 -36 -62 -76 -71 -90 -12 -19 -28 -26 -68 -31 -29 -4
-80 -13 -114 -20 -74 -15 -71 -19 -80 126 -7 117 8 190 44 219 32 25 58 25
128 -1z"/>
<path d="M1772 1660 c-60 -21 -186 -108 -219 -151 -10 -13 -9 -19 5 -35 9 -10
29 -35 43 -54 15 -19 44 -54 65 -76 38 -41 42 -42 147 -59 59 -9 113 -15 121
-12 19 8 34 114 31 217 -1 47 -4 91 -6 99 -4 14 -30 49 -57 77 -18 19 -67 17
-130 -6z m130 -20 c45 -35 61 -160 37 -295 l-11 -62 -61 12 c-34 7 -85 16
-114 20 -38 5 -56 13 -67 30 -8 12 -40 52 -71 88 l-56 66 52 41 c93 73 184
119 240 120 15 0 38 -9 51 -20z"/>
<path d="M1470 1426 c-35 -29 -72 -84 -66 -95 7 -11 63 -23 101 -21 17 1 44 2
61 3 40 2 39 22 -1 76 -42 55 -64 64 -95 37z m80 -46 l42 -50 -93 0 -92 0 19
23 c41 49 68 77 75 77 4 0 26 -22 49 -50z"/>
<path d="M1314 1227 c-16 -19 -37 -49 -48 -68 -62 -112 -96 -180 -96 -193 0
-17 53 -130 71 -152 6 -8 9 -14 5 -14 -3 0 1 -8 8 -17 8 -10 30 -38 48 -62 18
-25 45 -48 59 -52 42 -11 235 -11 276 0 27 8 45 22 63 48 14 21 27 40 30 43
15 14 100 191 100 207 0 23 -102 209 -141 256 l-29 35 -159 1 -158 2 -29 -34z
m380 -42 c22 -33 58 -96 82 -139 l42 -80 -35 -70 c-20 -39 -55 -101 -78 -137
-41 -63 -45 -66 -90 -72 -61 -9 -169 -9 -230 0 -45 6 -49 9 -90 72 -23 36 -59
98 -78 137 l-36 71 60 109 c95 170 88 163 172 166 40 2 110 3 157 3 l85 0 39
-60z"/>
<path d="M1435 1116 c-41 -18 -82 -68 -95 -117 -26 -96 57 -199 160 -199 48 0
85 17 122 57 117 125 -30 328 -187 259z m114 -18 c81 -38 110 -97 89 -174 -21
-80 -131 -130 -200 -93 -30 16 -78 70 -79 89 0 8 -2 24 -5 35 -6 31 23 98 52
120 21 16 73 41 93 44 3 1 25 -9 50 -21z"/>
<path d="M1130 1228 c-19 -5 -38 -15 -43 -21 -13 -21 3 -83 36 -134 10 -16 57
4 57 23 0 8 14 36 30 62 31 52 35 62 22 62 -4 0 -28 -35 -52 -77 l-44 -77 -21
65 c-25 73 -26 72 59 84 25 4 49 11 52 16 7 12 -52 10 -96 -3z"/>
<path d="M1775 1230 c11 -5 46 -14 77 -20 l57 -11 -18 -52 c-10 -29 -20 -59
-23 -67 -2 -8 -22 17 -48 63 -24 42 -48 77 -52 77 -14 0 -9 -13 26 -70 19 -30
33 -57 31 -61 -3 -3 7 -11 21 -18 20 -9 28 -8 40 4 8 8 14 16 12 17 -1 2 4 25
11 51 12 42 12 50 -1 63 -17 17 -78 34 -123 33 -26 0 -27 -2 -10 -9z"/>
<path d="M892 1150 c-98 -46 -152 -87 -182 -136 -32 -51 -21 -90 39 -148 27
-25 52 -46 55 -46 4 0 24 -11 46 -25 22 -14 40 -22 40 -19 0 3 11 -1 25 -10
14 -9 25 -14 25 -11 0 2 12 0 26 -6 42 -15 61 -3 80 54 9 29 27 75 40 104 l22
52 -42 113 c-52 135 -53 136 -174 78z m156 -82 l40 -106 -34 -86 c-19 -47 -34
-92 -34 -100 0 -26 -14 -25 -90 5 -145 59 -232 139 -217 201 14 53 97 116 226
168 36 15 67 27 67 26 1 0 20 -49 42 -108z"/>
<path d="M1974 1178 c-4 -7 -21 -48 -38 -93 -32 -86 -38 -149 -18 -186 7 -13
21 -51 31 -84 10 -33 26 -64 34 -69 22 -14 108 15 185 61 205 125 187 226 -62
344 -86 41 -120 47 -132 27z m178 -70 c68 -36 125 -89 134 -124 18 -70 -85
-159 -256 -219 l-37 -13 -38 101 c-21 56 -38 107 -38 112 0 6 17 56 38 112
l38 102 51 -21 c28 -11 77 -33 108 -50z"/>
<path d="M1140 865 c0 -6 20 -44 44 -85 24 -41 43 -76 42 -77 -1 -2 -49 8
-113 22 l-23 5 21 55 c11 31 19 61 16 68 -5 15 -37 -56 -44 -100 -5 -29 -2
-34 23 -44 16 -6 52 -12 79 -13 45 -1 50 1 53 22 2 12 -1 22 -6 22 -11 0 -63
95 -57 104 3 3 2 4 -2 1 -3 -3 -12 3 -19 13 -7 9 -14 12 -14 7z"/>
<path d="M1842 854 c-12 -8 -22 -19 -22 -24 0 -5 -14 -32 -31 -61 -39 -68 -33
-83 29 -76 65 8 75 10 89 24 17 15 16 30 -3 86 -20 60 -34 71 -62 51z m62
-123 c-3 -4 -128 -31 -130 -28 -1 1 19 37 44 81 l46 78 22 -63 c12 -35 20 -66
18 -68z"/>
<path d="M1072 649 c10 -5 64 -17 122 -27 97 -16 105 -19 125 -48 12 -17 45
-56 74 -86 l52 -56 -63 -50 c-83 -65 -162 -104 -220 -109 -40 -4 -50 -1 -69
19 -41 45 -54 155 -33 282 11 66 8 79 -10 46 -16 -29 -21 -213 -8 -268 6 -25
24 -56 41 -73 27 -27 35 -30 76 -26 26 3 64 13 86 22 22 10 43 19 46 19 11 2
124 91 146 115 l21 24 -31 41 c-18 22 -37 46 -44 54 -7 7 -28 32 -48 56 l-35
43 -108 17 c-126 19 -145 20 -120 5z"/>
<path d="M1875 654 c-13 -5 -135 -25 -157 -25 -10 0 -32 -19 -50 -42 -18 -23
-41 -51 -51 -62 -65 -72 -75 -89 -65 -104 19 -30 113 -97 179 -130 174 -85
244 -26 235 199 -5 131 -18 170 -54 169 -15 0 -31 -2 -37 -5z m72 -154 c3 -63
1 -121 -6 -146 -12 -44 -45 -81 -76 -85 -51 -6 -169 51 -262 127 l-43 36 45
51 c26 28 58 68 73 89 21 28 34 38 57 39 17 0 66 8 110 17 79 17 80 17 88 -3
5 -11 11 -67 14 -125z"/>
<path d="M1404 605 c-9 -22 70 -123 97 -125 14 0 94 86 97 105 4 23 2 21 -56
-47 l-41 -48 -45 52 c-25 29 -46 55 -46 58 0 3 36 4 80 2 43 -2 87 1 97 7 13
8 -7 10 -80 11 -77 0 -99 -3 -103 -15z"/>
</g>
</svg>
