<?xml version="1.0" standalone="no"?>
<!DOCTYPE svg PUBLIC "-//W3C//DTD SVG 20010904//EN"
 "http://www.w3.org/TR/2001/REC-SVG-20010904/DTD/svg10.dtd">
<svg version="1.0" xmlns="http://www.w3.org/2000/svg"
 width="60.000000pt" height="60.000000pt" viewBox="0 0 225.000000 225.000000"
 preserveAspectRatio="xMidYMid meet">

<g transform="translate(0.000000,225.000000) scale(0.100000,-0.100000)"
fill="#025684" stroke="#025684">
<path d="M960 2221 c-89 -13 -207 -49 -297 -91 -46 -22 -86 -40 -89 -40 -3 0
-10 -4 -17 -10 -7 -5 -45 -33 -84 -62 -41 -30 -72 -59 -70 -68 1 -8 -5 -15
-13 -15 -28 0 -80 -59 -75 -85 5 -28 -9 -58 -19 -41 -4 6 -3 11 3 11 5 0 9 9
8 19 -1 11 -6 17 -14 14 -8 -3 -11 -8 -8 -11 2 -3 -4 -12 -16 -20 -11 -8 -18
-20 -15 -28 3 -7 0 -16 -6 -20 -7 -5 -8 -2 -3 7 7 12 6 12 -7 1 -10 -8 -14
-20 -11 -29 5 -12 3 -14 -7 -8 -10 6 -11 2 -6 -21 5 -21 4 -25 -4 -14 -9 13
-11 13 -20 0 -5 -8 -10 -22 -10 -30 0 -13 1 -13 11 0 9 13 10 13 6 0 -2 -8
-10 -15 -18 -15 -8 0 -13 -8 -13 -18 1 -9 -3 -14 -9 -10 -6 4 -8 0 -4 -11 4
-9 3 -15 -1 -12 -13 8 -40 -57 -68 -162 -53 -207 -37 -454 43 -635 12 -27 19
-34 25 -25 5 8 7 4 3 -12 -6 -29 55 -137 74 -132 7 1 10 -2 6 -8 -8 -13 33
-72 45 -65 5 3 11 1 14 -4 9 -14 48 0 42 15 -3 8 -1 14 4 14 6 0 10 -7 10 -15
0 -20 -41 -36 -57 -23 -9 7 -13 7 -13 0 0 -15 26 -33 35 -24 5 4 5 2 2 -4 -3
-6 11 -27 32 -48 34 -33 40 -36 65 -26 15 5 28 10 29 10 1 0 3 -12 4 -27 1
-22 -1 -24 -8 -10 -9 15 -39 24 -39 12 0 -8 53 -54 63 -55 5 0 6 4 3 8 -3 5 1
9 9 9 11 0 12 -4 4 -13 -9 -11 7 -25 68 -64 43 -27 71 -50 63 -50 -13 0 -13
-1 0 -11 13 -9 13 -10 0 -6 -8 2 -14 10 -12 16 3 15 1 15 -60 -16 -29 -15 -91
-37 -138 -48 -55 -14 -84 -26 -82 -34 1 -7 -2 -10 -8 -6 -5 3 -15 -6 -22 -20
-10 -22 -8 -30 9 -53 15 -21 35 -30 84 -40 86 -18 418 -21 534 -4 120 18 332
60 353 71 9 4 23 6 31 3 9 -3 11 0 6 8 -6 10 -4 12 8 7 25 -9 105 18 233 79
68 32 112 59 108 65 -3 6 2 9 12 7 11 -2 18 2 17 8 -1 7 5 11 15 10 12 -1 16
5 14 19 -2 15 0 16 6 7 7 -11 16 -9 43 7 19 12 34 26 34 33 0 7 7 12 16 10 9
-1 54 34 100 78 70 66 81 82 69 91 -13 9 -13 10 2 6 33 -11 122 140 169 284
34 106 34 108 10 117 -16 6 -17 9 -5 20 12 11 14 10 14 -3 0 -8 5 -15 10 -15
11 0 13 33 4 68 -5 18 -9 20 -20 11 -10 -8 -14 -8 -14 0 0 6 4 11 8 11 5 0 14
10 21 23 11 21 11 21 6 0 -3 -12 -1 -24 5 -28 7 -4 10 10 10 42 -1 26 -1 84
-1 128 1 44 -6 118 -14 165 -8 47 -15 87 -15 90 0 3 -5 -2 -11 -10 -9 -12 -10
-12 -5 4 8 25 -12 86 -27 82 -7 -1 -9 -1 -4 1 4 3 7 11 7 19 0 9 -4 13 -9 10
-5 -3 -12 1 -15 10 -3 8 -2 12 4 9 6 -4 5 5 -2 20 -8 19 -14 22 -20 13 -6 -9
-8 -7 -4 7 6 22 -53 131 -70 128 -5 -1 -17 5 -26 14 -9 8 -22 12 -27 8 -8 -4
-8 2 0 22 10 27 7 31 -81 116 -82 78 -124 108 -104 75 4 -7 3 -8 -5 -4 -6 4
-9 11 -6 16 13 22 -231 150 -291 153 -18 1 -29 6 -26 11 3 5 -5 7 -16 4 -12
-4 -20 -3 -17 2 5 9 -114 34 -123 26 -3 -3 2 -6 11 -6 10 0 17 -4 17 -10 0
-11 -32 -1 -42 14 -9 13 -238 18 -318 7z m-7 -38 c-7 -2 -19 -2 -25 0 -7 3 -2
5 12 5 14 0 19 -2 13 -5z m80 0 c-7 -2 -19 -2 -25 0 -7 3 -2 5 12 5 14 0 19
-2 13 -5z m-248 -23 c-3 -5 -11 -10 -16 -10 -6 0 -7 5 -4 10 3 6 11 10 16 10
6 0 7 -4 4 -10z m362 4 c-3 -3 -12 -4 -19 -1 -8 3 -5 6 6 6 11 1 17 -2 13 -5z
m-80 -10 c-3 -3 -12 -4 -19 -1 -8 3 -5 6 6 6 11 1 17 -2 13 -5z m290 0 c-3 -3
-12 -4 -19 -1 -8 3 -5 6 6 6 11 1 17 -2 13 -5z m-623 -25 c-3 -5 -11 -9 -19
-9 -8 0 -16 4 -19 9 -3 5 5 9 19 9 14 0 22 -4 19 -9z m619 4 c-7 -2 -21 -2
-30 0 -10 3 -4 5 12 5 17 0 24 -2 18 -5z m30 -48 c49 -14 121 -41 160 -59 44
-21 63 -27 48 -15 -13 10 -18 19 -12 19 6 0 20 -13 32 -30 21 -28 58 -53 43
-28 -4 7 -3 8 5 4 6 -4 9 -11 6 -16 -6 -9 48 -51 62 -49 16 2 53 -14 53 -23 0
-6 -12 -3 -27 7 -16 9 2 -13 40 -50 37 -37 67 -72 67 -77 0 -6 7 -8 15 -5 8 4
17 1 21 -5 4 -7 3 -8 -4 -4 -19 11 -14 -4 11 -38 43 -57 83 -131 106 -193 13
-34 28 -64 33 -65 6 -2 11 -23 12 -46 0 -23 4 -42 9 -42 4 0 7 -22 6 -50 -2
-35 -7 -50 -17 -50 -7 0 -27 -13 -43 -29 -24 -25 -29 -38 -29 -78 0 -26 6 -59
13 -72 16 -32 66 -60 97 -55 24 4 24 4 -2 -7 -29 -11 -37 -34 -15 -42 7 -3 5
-6 -5 -6 -12 -1 -18 -9 -18 -25 0 -14 -4 -28 -10 -31 -5 -3 -10 -15 -10 -26 0
-11 -9 -37 -20 -58 -10 -21 -16 -42 -12 -45 3 -4 2 -10 -4 -14 -5 -4 -22 -28
-37 -53 -14 -26 -49 -73 -76 -106 -28 -33 -47 -63 -43 -67 4 -4 2 -6 -3 -5
-15 5 -55 -24 -55 -38 0 -7 -6 -12 -12 -10 -7 1 -12 -4 -10 -11 1 -8 -2 -11
-8 -7 -6 4 -18 1 -26 -6 -11 -9 -12 -14 -3 -19 6 -4 0 -7 -14 -7 -14 0 -38 -9
-54 -19 -48 -32 -67 -44 -100 -61 -21 -10 -30 -21 -26 -32 4 -13 3 -13 -5 -2
-8 12 -15 12 -41 1 -17 -7 -31 -16 -31 -21 0 -5 -3 -8 -7 -8 -5 1 -15 1 -23 0
-13 -1 -13 -3 0 -12 12 -9 12 -10 -3 -5 -20 6 -114 -21 -123 -35 -3 -5 -9 -7
-14 -4 -5 3 -40 -2 -77 -10 -203 -48 -535 -87 -557 -65 -6 6 -6 10 -1 8 17 -5
58 29 50 43 -5 8 -4 10 4 5 12 -8 26 4 54 44 23 33 21 55 -5 81 -21 19 -106
64 -118 61 -3 0 -14 -4 -25 -8 -20 -7 -20 -6 -1 8 18 14 18 16 -12 34 -18 10
-32 22 -32 26 0 4 -5 8 -11 8 -6 0 -34 20 -63 45 -29 25 -57 41 -61 37 -5 -4
-5 -2 -2 4 3 6 -4 21 -17 35 -12 13 -33 41 -47 61 -14 21 -29 35 -32 31 -4 -3
-7 1 -7 10 0 10 -4 17 -10 17 -5 0 -9 3 -8 7 4 17 -14 53 -23 47 -6 -3 -9 0
-8 7 2 8 -5 32 -15 54 -10 22 -28 74 -40 116 l-23 77 44 6 c32 4 51 1 66 -9
29 -20 44 -19 57 5 9 17 7 22 -15 32 -24 11 -25 12 -8 37 23 36 23 135 -1 179
-19 37 -82 71 -131 72 -16 0 -25 4 -19 8 6 4 16 30 23 57 13 52 17 61 50 135
32 71 109 190 144 222 11 9 16 22 12 27 -4 7 0 8 10 5 12 -5 16 -2 13 11 -2
11 4 19 16 21 22 3 36 22 29 40 -2 6 0 15 6 19 7 4 8 0 4 -11 -3 -9 25 8 62
39 38 30 90 66 117 78 26 13 48 28 48 32 0 5 4 6 8 3 5 -3 39 6 78 20 164 60
411 68 577 19z m221 26 c3 -4 -6 -6 -19 -3 -14 2 -25 6 -25 8 0 8 39 4 44 -5z
m-884 -40 c0 -5 -9 -7 -20 -4 -11 3 -20 7 -20 9 0 2 9 4 20 4 11 0 20 -4 20
-9z m804 -2 c-4 -8 1 -9 17 -5 21 6 21 5 6 -4 -9 -6 -27 -8 -40 -4 -21 7 -21
7 -2 15 27 10 27 10 19 -2z m200 -31 c-5 -7 -2 -9 8 -6 8 4 15 0 15 -7 0 -10
-5 -11 -18 -4 -24 12 -32 11 -23 -3 5 -7 3 -8 -6 -3 -10 6 -10 11 3 20 9 7 13
16 9 20 -4 5 -1 5 6 1 7 -4 9 -12 6 -18z m-1192 -10 c-18 -18 -24 -20 -34 -10
-11 11 -10 12 3 7 10 -4 19 0 22 9 4 9 12 16 19 16 7 0 3 -9 -10 -22z m1142
-26 c3 -5 -1 -9 -9 -9 -8 0 -15 4 -15 9 0 4 4 8 9 8 6 0 12 -4 15 -8z m146
-34 c0 -13 -23 -5 -28 10 -2 7 2 10 12 6 9 -3 16 -11 16 -16z m-45 -38 c-3 -5
-12 -10 -18 -10 -7 0 -6 4 3 10 19 12 23 12 15 0z m55 0 c0 -5 -4 -10 -10 -10
-5 0 -10 5 -10 10 0 6 5 10 10 10 6 0 10 -4 10 -10z m45 -1 c11 -17 -1 -21
-15 -4 -8 9 -8 15 -2 15 6 0 14 -5 17 -11z m-27 -26 c0 -10 1 -23 3 -29 2 -7
0 -14 -5 -15 -10 -4 -17 40 -9 54 7 12 12 8 11 -10z m-33 -3 c3 -5 1 -10 -4
-10 -6 0 -11 5 -11 10 0 6 2 10 4 10 3 0 8 -4 11 -10z m120 -36 c9 -15 12 -23
6 -20 -11 7 -35 46 -28 46 3 0 12 -12 22 -26z m-109 -32 c-6 -5 -36 23 -36 34
0 4 9 -1 20 -11 11 -10 18 -20 16 -23z m79 28 c-3 -5 -1 -10 4 -10 6 0 11 -5
11 -10 0 -6 -8 -5 -19 2 -19 12 -19 28 0 28 6 0 7 -4 4 -10z m-38 -32 c-3 -8
-6 -5 -6 6 -1 11 2 17 5 13 3 -3 4 -12 1 -19z m-1566 -45 c12 -16 12 -17 -2
-6 -9 7 -20 9 -24 5 -5 -4 -5 -1 -1 6 9 16 11 15 27 -5z m1626 -5 c-3 -8 -6
-5 -6 6 -1 11 2 17 5 13 3 -3 4 -12 1 -19z m93 -67 c0 -6 -4 -13 -10 -16 -5
-3 -10 1 -10 9 0 9 5 16 10 16 6 0 10 -4 10 -9z m-52 -46 c-3 -3 -9 2 -12 12
-6 14 -5 15 5 6 7 -7 10 -15 7 -18z m-1723 -45 c3 -5 -1 -10 -9 -10 -9 0 -16
5 -16 10 0 6 4 10 9 10 6 0 13 -4 16 -10z m-112 -65 c-3 -9 -8 -14 -10 -11 -3
3 -2 9 2 15 9 16 15 13 8 -4z m-48 -195 c3 -5 1 -10 -4 -10 -6 0 -11 5 -11 10
0 6 2 10 4 10 3 0 8 -4 11 -10z m80 -8 c-3 -3 -11 0 -18 7 -9 10 -8 11 6 5 10
-3 15 -9 12 -12z m81 -60 c38 -26 58 -114 35 -151 -8 -12 -14 -13 -37 -2 -24
10 -30 10 -39 -3 -6 -8 -15 -12 -21 -8 -10 8 -15 44 -5 37 4 -2 6 20 3 50 -2
30 -2 61 1 70 7 16 44 20 63 7z m1904 -12 c0 -5 -4 -10 -10 -10 -5 0 -10 5
-10 10 0 6 5 10 10 10 6 0 10 -4 10 -10z m21 -37 c13 -16 12 -17 -3 -4 -17 13
-22 21 -14 21 2 0 10 -8 17 -17z m-101 -43 c0 -11 -7 -20 -15 -20 -13 0 -14 4
-5 20 6 11 13 20 15 20 3 0 5 -9 5 -20z m46 -18 c-4 -3 -11 0 -16 8 -15 24
-11 33 6 15 9 -9 13 -19 10 -23z m71 6 c-3 -8 -6 -5 -6 6 -1 11 2 17 5 13 3
-3 4 -12 1 -19z m-2050 -20 c-3 -8 -6 -5 -6 6 -1 11 2 17 5 13 3 -3 4 -12 1
-19z m1936 -48 c4 -14 10 -18 22 -14 13 5 14 9 3 15 -7 5 -8 9 -2 9 18 0 24
-13 13 -27 -15 -17 -34 -17 -53 3 -20 19 -21 34 -2 34 7 0 16 -9 19 -20z m104
4 c-3 -3 -12 -4 -19 -1 -8 3 -5 6 6 6 11 1 17 -2 13 -5z m-1973 -13 c11 -4 15
-10 9 -14 -5 -3 -19 0 -29 8 -20 15 -11 18 20 6z m-120 -26 c-4 -8 -8 -15 -10
-15 -2 0 -4 7 -4 15 0 8 4 15 10 15 5 0 7 -7 4 -15z m36 -20 c0 -12 -19 -12
-23 0 -4 9 -1 12 9 8 7 -3 14 -7 14 -8z m74 -73 c3 -5 -1 -9 -9 -9 -8 0 -15 4
-15 9 0 4 4 8 9 8 6 0 12 -4 15 -8z m-90 -38 c3 -8 2 -12 -4 -9 -6 3 -10 10
-10 16 0 14 7 11 14 -7z m53 -36 c-3 -8 -6 -5 -6 6 -1 11 2 17 5 13 3 -3 4
-12 1 -19z m-17 -22 c0 -2 -8 -10 -17 -17 -16 -13 -17 -12 -4 4 13 16 21 21
21 13z m20 -36 c0 -5 -5 -10 -11 -10 -5 0 -7 5 -4 10 3 6 8 10 11 10 2 0 4 -4
4 -10z m1919 -44 c-9 -8 -10 -7 -5 7 3 10 7 24 7 30 1 7 3 4 6 -7 3 -10 -1
-23 -8 -30z m19 -57 c-3 -8 -7 -3 -11 10 -4 17 -3 21 5 13 5 -5 8 -16 6 -23z
m-1823 -12 c4 4 5 2 0 -6 -7 -12 -10 -11 -22 4 -7 11 -13 24 -13 29 1 6 6 1
13 -12 7 -12 17 -19 22 -15z m1771 -44 c-10 -10 -19 5 -10 18 6 11 8 11 12 0
2 -7 1 -15 -2 -18z m-1816 -26 c-8 -9 -9 -7 -4 8 7 18 6 19 -11 5 -17 -14 -17
-14 -4 7 12 19 15 20 22 7 6 -10 5 -20 -3 -27z m1828 -3 c-7 -15 -14 -21 -16
-15 -2 7 2 18 8 26 18 22 21 18 8 -11z m-1708 -5 c0 -6 -4 -7 -10 -4 -5 3 -10
11 -10 16 0 6 5 7 10 4 6 -3 10 -11 10 -16z m1591 -12 c-10 -9 -11 -8 -5 6 3
10 9 15 12 12 3 -3 0 -11 -7 -18z m-1652 -29 c-6 -13 -13 -24 -14 -26 -1 -1
-8 4 -15 13 -11 13 -10 14 2 10 9 -4 18 1 21 9 4 9 9 16 12 16 3 0 0 -10 -6
-22z m1621 -12 c0 -3 -4 -8 -10 -11 -5 -3 -10 -1 -10 4 0 6 5 11 10 11 6 0 10
-2 10 -4z m97 -28 c-3 -8 -6 -5 -6 6 -1 11 2 17 5 13 3 -3 4 -12 1 -19z
m-1610 1 c-9 -6 -14 -15 -11 -21 4 -7 2 -8 -4 -4 -16 9 -3 36 17 36 14 -1 14
-2 -2 -11z m-22 -49 c3 -5 1 -10 -4 -10 -6 0 -11 5 -11 10 0 6 2 10 4 10 3 0
8 -4 11 -10z m1575 -15 c-7 -9 -15 -13 -17 -11 -6 6 20 36 26 30 2 -2 -2 -10
-9 -19z m-1530 -10 c0 -14 -38 -46 -44 -37 -3 6 1 18 10 26 15 16 34 21 34 11z
m1420 -21 c0 -2 -9 0 -20 6 -11 6 -20 13 -20 16 0 2 9 0 20 -6 11 -6 20 -13
20 -16z m60 -18 c0 -2 -7 -9 -15 -16 -13 -11 -14 -10 -9 4 5 14 24 23 24 12z
m-47 -19 c3 -8 2 -20 -3 -26 -5 -9 -7 -4 -7 13 0 29 2 32 10 13z m-1269 -18
c-3 -5 -10 -7 -15 -3 -5 3 -7 10 -3 15 3 5 10 7 15 3 5 -3 7 -10 3 -15z m1144
-13 c-2 -1 -10 -7 -19 -14 -13 -10 -18 -10 -22 0 -3 8 5 14 20 14 13 1 23 1
21 0z m37 -16 c3 -6 -1 -7 -9 -4 -18 7 -21 14 -7 14 6 0 13 -4 16 -10z m-1075
-23 c13 -5 13 -6 -1 -6 -8 -1 -24 6 -35 15 -19 15 -19 15 1 6 11 -5 27 -12 35
-15z m1057 -7 c1 -11 -3 -23 -9 -26 -7 -5 -9 -2 -5 8 3 9 0 21 -6 27 -8 8 -7
11 4 11 8 0 15 -9 16 -20z m-1213 -15 c11 -8 16 -15 10 -15 -5 0 -18 7 -28 15
-11 8 -16 15 -10 15 5 0 18 -7 28 -15z m192 -21 c1 -9 0 -13 -4 -10 -3 4 -7
14 -8 22 -1 9 0 13 4 10 3 -4 7 -14 8 -22z m16 -33 c8 11 9 11 6 1 -4 -16 -22
-18 -24 -2 -2 7 -1 6 3 -1 4 -8 8 -7 15 2z m898 -28 c0 -1 -8 -7 -18 -12 -13
-7 -19 -6 -19 2 0 7 9 13 19 13 10 0 18 -1 18 -3z m-260 -7 c0 -3 -4 -8 -10
-11 -5 -3 -10 -1 -10 4 0 6 5 11 10 11 6 0 10 -2 10 -4z m-820 -42 c0 -2 -7
-4 -15 -4 -8 0 -15 4 -15 10 0 5 7 7 15 4 8 -4 15 -8 15 -10z m965 6 c3 -6 -1
-7 -9 -4 -18 7 -21 14 -7 14 6 0 13 -4 16 -10z m-855 -4 c0 -2 -7 -7 -16 -10
-8 -3 -12 -2 -9 4 6 10 25 14 25 6z m817 -12 c-3 -3 -12 -4 -19 -1 -8 3 -5 6
6 6 11 1 17 -2 13 -5z m-1020 -10 c-3 -3 -12 -4 -19 -1 -8 3 -5 6 6 6 11 1 17
-2 13 -5z m-62 -24 c-3 -5 -1 -10 6 -10 7 0 10 -2 8 -5 -3 -2 -16 -1 -29 2
-22 6 -23 7 -4 14 26 10 26 10 19 -1z m110 0 c3 -5 1 -10 -4 -10 -6 0 -11 5
-11 10 0 6 2 10 4 10 3 0 8 -4 11 -10z m529 -9 c3 -4 -6 -6 -19 -3 -14 2 -25
6 -25 8 0 8 39 4 44 -5z m96 5 c0 -2 -7 -7 -16 -10 -8 -3 -12 -2 -9 4 6 10 25
14 25 6z m13 -33 c-7 -2 -19 -2 -25 0 -7 3 -2 5 12 5 14 0 19 -2 13 -5z m94 1
c-3 -3 -12 -4 -19 -1 -8 3 -5 6 6 6 11 1 17 -2 13 -5z m-40 -19 c0 -8 -4 -12
-9 -9 -4 3 -8 9 -8 15 0 5 4 9 8 9 5 0 9 -7 9 -15z m40 -1 c-3 -3 -12 -4 -19
-1 -8 3 -5 6 6 6 11 1 17 -2 13 -5z m-774 -71 c-7 -2 -19 -2 -25 0 -7 3 -2 5
12 5 14 0 19 -2 13 -5z m136 -9 c9 -8 -45 -2 -64 6 -14 7 -8 8 20 3 22 -3 42
-7 44 -9z m104 -1 c-7 -2 -21 -2 -30 0 -10 3 -4 5 12 5 17 0 24 -2 18 -5z"/>
<path d="M981 1784 c-42 -13 -141 -70 -141 -81 0 -3 8 -12 18 -20 9 -8 11 -11
3 -7 -8 4 -22 -4 -38 -22 -13 -16 -21 -22 -17 -14 4 8 14 23 22 33 9 10 11 17
4 17 -14 0 -68 -78 -89 -128 -13 -31 -45 -193 -39 -199 1 -1 37 -7 81 -13 165
-23 175 -23 176 -9 0 8 4 5 8 -6 8 -19 9 -18 21 8 10 21 11 33 2 52 -7 14 -12
31 -11 38 0 7 5 1 11 -13 10 -23 11 -24 17 -5 10 34 40 83 53 88 10 4 10 8 -2
17 -12 10 -12 11 5 5 11 -4 38 -11 60 -15 21 -5 47 -18 57 -29 9 -12 19 -21
22 -19 2 2 8 -1 13 -6 5 -5 3 -6 -5 -2 -10 6 -11 1 -6 -18 4 -16 2 -26 -5 -26
-6 0 -11 -6 -11 -13 0 -7 -27 -39 -60 -72 -32 -32 -57 -62 -54 -66 4 -7 -18
-5 -68 7 -44 10 -96 -4 -114 -32 -24 -36 -6 -70 51 -94 25 -11 45 -22 45 -25
0 -4 -4 -3 -10 0 -5 3 -10 2 -10 -4 0 -5 6 -12 13 -14 6 -3 2 -6 -9 -6 -12 -1
-27 6 -34 14 -14 17 -46 20 -55 5 -12 -19 16 -49 56 -61 31 -10 37 -15 25 -21
-14 -8 -16 -40 -16 -233 0 -215 1 -225 19 -225 11 0 22 6 24 13 4 9 6 9 6 0 1
-10 34 -13 131 -13 l130 0 0 166 c0 98 -4 163 -9 159 -13 -7 -9 118 4 128 6 4
5 10 -3 16 -11 7 -10 9 3 14 9 4 13 3 10 -3 -5 -8 52 -3 63 5 2 2 4 29 5 62 0
32 2 46 4 31 3 -18 9 -25 19 -21 8 3 14 12 14 20 0 8 5 11 10 8 6 -3 10 -28
10 -56 0 -47 1 -49 29 -49 l28 0 1 98 c1 76 6 105 22 137 23 45 26 71 8 78 -8
3 -6 6 5 6 14 1 17 11 17 64 0 46 -3 58 -11 47 -8 -11 -9 -7 -4 15 4 21 -1 47
-16 79 -24 56 -96 139 -112 129 -5 -3 -7 -1 -4 4 10 16 -44 47 -78 45 -24 -1
-26 1 -11 7 18 7 16 9 -13 19 -18 7 -37 9 -42 6 -5 -3 -9 0 -9 5 0 16 -166 12
-219 -5z m136 0 c-3 -3 -12 -4 -19 -1 -8 3 -5 6 6 6 11 1 17 -2 13 -5z m-87
-42 c3 -3 -8 -2 -25 2 -16 4 -34 12 -40 17 -5 5 6 4 25 -2 19 -7 37 -14 40
-17z m180 8 c18 -12 2 -12 -25 0 -13 6 -15 9 -5 9 8 0 22 -4 30 -9z m-255 -19
c-3 -6 -11 -11 -16 -11 -5 0 -4 6 3 14 14 16 24 13 13 -3z m280 -3 c17 -2 35
-6 40 -9 6 -3 22 -5 37 -4 15 0 25 -2 22 -6 -5 -9 -51 -5 -61 4 -3 4 -11 7
-17 7 -6 0 5 -11 25 -23 96 -60 147 -137 156 -238 7 -74 -2 -109 -27 -109 -15
0 -20 -7 -20 -25 0 -14 5 -25 10 -25 6 0 10 -7 10 -15 0 -8 -4 -15 -8 -15 -4
0 -22 -19 -40 -42 l-32 -42 0 37 c0 34 -2 37 -30 37 -30 0 -30 0 -30 -57 0
-74 -7 -96 -32 -112 -36 -22 -53 7 -53 92 0 40 -4 75 -9 79 -11 8 -18 40 -7
33 4 -2 23 11 41 30 19 19 30 35 24 35 -5 0 -3 4 4 9 22 14 25 82 5 121 -28
53 -73 79 -136 76 -55 -2 -81 -11 -72 -26 3 -4 -2 -7 -11 -6 -22 2 -53 -42
-73 -105 -10 -29 -24 -55 -32 -57 -12 -3 -12 -2 0 6 11 8 2 12 -35 17 -99 14
-119 21 -116 37 1 9 -2 19 -8 23 -5 3 -10 12 -10 18 0 7 4 6 10 -3 13 -20 21
-8 23 33 1 19 6 32 11 29 5 -3 7 5 3 17 -3 13 -3 20 0 17 11 -11 53 62 47 81
-4 12 -3 14 3 6 6 -9 20 -3 52 23 25 19 55 37 68 40 12 4 21 9 18 13 -4 7 187
6 250 -1z m-320 -8 c3 -6 -1 -7 -9 -4 -18 7 -21 14 -7 14 6 0 13 -4 16 -10z
m-5 -25 c0 -2 -6 -5 -13 -8 -8 -3 -14 1 -14 8 0 7 6 11 14 8 7 -3 13 -6 13 -8z
m445 -14 c3 -5 0 -13 -6 -17 -7 -4 -9 -3 -5 4 3 5 0 13 -6 15 -9 4 -10 6 -1 6
6 1 14 -3 18 -8z m65 -76 c0 -12 -19 -12 -23 0 -4 9 -1 12 9 8 7 -3 14 -7 14
-8z m-653 -37 c-3 -8 -6 -5 -6 6 -1 11 2 17 5 13 3 -3 4 -12 1 -19z m670 0
c-3 -8 -6 -5 -6 6 -1 11 2 17 5 13 3 -3 4 -12 1 -19z m43 -45 c0 -7 -4 -13
-10 -13 -5 0 -10 6 -10 14 0 8 -3 23 -6 33 -6 16 -5 16 9 -2 9 -11 17 -26 17
-32z m-315 27 c3 -5 2 -10 -4 -10 -5 0 -13 5 -16 10 -3 6 -2 10 4 10 5 0 13
-4 16 -10z m-424 -47 c-12 -20 -14 -14 -5 12 4 9 9 14 11 11 3 -2 0 -13 -6
-23z m271 -12 c8 12 9 12 6 0 -2 -8 -11 -15 -20 -17 -12 -1 -15 3 -10 14 4 12
7 13 10 3 4 -11 6 -11 14 0z m-41 -114 c-10 -9 -11 -8 -5 6 3 10 9 15 12 12 3
-3 0 -11 -7 -18z m-144 7 c-3 -3 -12 -4 -19 -1 -8 3 -5 6 6 6 11 1 17 -2 13
-5z m386 -17 c3 -8 -1 -14 -8 -14 -7 0 -11 6 -8 14 3 7 6 13 8 13 2 0 5 -6 8
-13z m-17 -42 c-8 -8 -18 -15 -22 -15 -3 0 -1 7 6 15 7 8 17 15 22 15 5 0 3
-7 -6 -15z m269 -35 c-3 -5 -12 -10 -18 -10 -7 0 -6 4 3 10 19 12 23 12 15 0z
m-470 -68 c6 -4 16 -15 23 -24 12 -15 10 -16 -23 -13 -45 4 -67 21 -45 35 18
12 32 12 45 2z m135 -66 c0 -77 9 -98 48 -110 14 -5 17 -18 17 -71 l0 -65 -92
0 -93 0 0 48 c0 63 9 90 30 97 21 7 45 59 35 76 -15 23 -10 54 10 65 11 6 19
16 18 22 -2 7 4 12 12 12 12 0 15 -15 15 -74z m250 40 c0 -3 -4 -8 -10 -11 -5
-3 -10 -1 -10 4 0 6 5 11 10 11 6 0 10 -2 10 -4z m-143 -212 c-3 -3 -12 -4
-19 -1 -8 3 -5 6 6 6 11 1 17 -2 13 -5z m-212 -94 c-3 -5 -11 -10 -16 -10 -6
0 -7 5 -4 10 3 6 11 10 16 10 6 0 7 -4 4 -10z m10 -30 c-4 -6 25 -10 79 -10
l86 0 0 -110 0 -110 -85 0 c-47 0 -88 -1 -92 -2 -5 -2 -10 40 -13 92 -5 90 4
150 23 150 4 0 5 -4 2 -10z m165 -260 c0 -5 -7 -7 -15 -4 -8 4 -15 8 -15 10 0
2 7 4 15 4 8 0 15 -4 15 -10z"/>
<path d="M660 1325 c0 -21 5 -25 30 -25 25 0 30 4 30 25 0 21 -5 25 -30 25
-25 0 -30 -4 -30 -25z"/>
<path d="M1880 1326 c0 -16 7 -27 20 -31 27 -9 40 1 40 31 0 20 -5 24 -30 24
-25 0 -30 -4 -30 -24z"/>
<path d="M400 1180 c0 -83 2 -93 25 -115 28 -29 54 -31 95 -10 17 9 30 11 30
5 0 -5 11 -10 25 -10 l25 0 0 110 0 110 -30 0 -29 0 -3 -81 c-3 -70 -6 -84
-24 -96 -19 -12 -24 -12 -38 2 -12 12 -16 36 -16 96 l0 79 -30 0 -30 0 0 -90z"/>
<path d="M660 1161 l0 -111 30 0 31 0 -3 108 -3 107 -27 3 -28 3 0 -110z"/>
<path d="M1516 1249 c-28 -22 -34 -55 -13 -81 6 -9 38 -24 70 -33 60 -17 69
-28 39 -44 -13 -7 -26 -5 -43 4 -44 26 -49 27 -64 21 -25 -9 -17 -35 18 -56
57 -35 136 -20 157 31 18 42 -5 72 -67 89 -58 16 -73 27 -53 40 22 14 36 12
55 -6 10 -11 24 -14 41 -10 21 6 23 9 14 27 -23 42 -110 52 -154 18z"/>
<path d="M1879 1243 c-1 -16 -2 -68 -3 -118 -3 -114 -2 -112 -26 -118 -12 -3
-20 -14 -20 -26 0 -18 6 -21 39 -21 60 0 66 13 69 172 l4 138 -31 0 c-27 0
-31 -4 -32 -27z"/>
<path d="M1732 1153 c3 -27 5 -28 58 -28 53 0 55 1 58 28 3 27 3 27 -58 27
-61 0 -61 0 -58 -27z"/>
<path d="M1970 1823 c0 -5 9 -18 20 -28 11 -10 20 -14 20 -8 0 5 -9 18 -20 28
-11 10 -20 14 -20 8z"/>
</g>
</svg>
